<svg width="830" height="135" viewBox="0 0 830 135" fill="none" xmlns="http://www.w3.org/2000/svg">
<g clip-path="url(#clip0_375_6491)">
<rect width="830" height="135" rx="14" fill="#161830"/>
<rect width="830" height="135" rx="14" fill="#1C160D"/>
<rect width="830" height="135" rx="14" fill="url(#paint0_radial_375_6491)" fill-opacity="0.2"/>
<rect width="830" height="135" rx="14" fill="url(#paint1_radial_375_6491)" fill-opacity="0.2"/>
<path fill-rule="evenodd" clip-rule="evenodd" d="M39.0098 30.8346L28 30.835V25.123H39.0098V30.835H44.754V41.8771H39.0098V36.5471C36.093 36.5979 33.7442 38.9647 33.7442 41.8771H28C28 35.8103 32.9205 30.8862 39.0098 30.835V30.8346Z" fill="#FFD0A0"/>
<path d="M78.0659 25.368L73.2779 42H69.0499L66.2219 32.928C66.1099 32.5547 66.0072 32.1907 65.9139 31.836C65.8392 31.4813 65.7832 31.1453 65.7459 30.828H65.6059C65.5686 31.1453 65.5126 31.4813 65.4379 31.836C65.3632 32.1907 65.2699 32.5547 65.1579 32.928L62.3019 42H58.1019L53.2859 25.368H57.2059L59.9219 35.756C60.0152 36.1293 60.0992 36.4747 60.1739 36.792C60.2486 37.1093 60.3139 37.436 60.3699 37.772H60.5099C60.5472 37.436 60.6032 37.1093 60.6779 36.792C60.7526 36.4747 60.8459 36.1293 60.9579 35.756L63.6739 26.684H67.8739L70.5899 35.756C70.7019 36.1293 70.7952 36.4747 70.8699 36.792C70.9446 37.1093 71.0099 37.436 71.0659 37.772H71.1779C71.2339 37.436 71.2992 37.1187 71.3739 36.82C71.4486 36.5027 71.5326 36.148 71.6259 35.756L74.3419 25.368H78.0659ZM88.814 36.708H80.918C81.03 37.212 81.254 37.6507 81.59 38.024C81.9446 38.3787 82.3926 38.6493 82.934 38.836C83.494 39.0227 84.1473 39.116 84.894 39.116C85.5286 39.116 86.21 39.032 86.938 38.864C87.666 38.6773 88.2633 38.444 88.73 38.164L88.87 41.216C88.3846 41.552 87.7313 41.8133 86.91 42C86.1073 42.168 85.3513 42.252 84.642 42.252C83.0553 42.252 81.6926 41.9907 80.554 41.468C79.434 40.9267 78.5846 40.1707 78.006 39.2C77.446 38.2293 77.166 37.0907 77.166 35.784C77.166 34.496 77.4273 33.3853 77.95 32.452C78.4913 31.5 79.2286 30.7627 80.162 30.24C81.114 29.6987 82.178 29.428 83.354 29.428C84.4366 29.428 85.398 29.6427 86.238 30.072C87.0966 30.5013 87.7593 31.1267 88.226 31.948C88.7113 32.7507 88.954 33.7213 88.954 34.86C88.954 35.1027 88.9353 35.4013 88.898 35.756C88.8793 36.092 88.8513 36.4093 88.814 36.708ZM83.382 32.004C82.654 32.004 82.0566 32.2467 81.59 32.732C81.142 33.2173 80.8713 33.8613 80.778 34.664H85.622C85.622 34.6267 85.622 34.5707 85.622 34.496C85.622 34.4027 85.622 34.3373 85.622 34.3C85.622 33.6093 85.4166 33.0587 85.006 32.648C84.614 32.2187 84.0726 32.004 83.382 32.004ZM102.526 35.644C102.526 36.9507 102.246 38.108 101.686 39.116C101.126 40.1053 100.324 40.88 99.2783 41.44C98.233 41.9813 96.9823 42.252 95.5263 42.252C94.5183 42.252 93.557 42.1493 92.6423 41.944C91.7276 41.72 90.9156 41.44 90.2063 41.104V24.416L93.7903 24.248V30.436C94.2943 30.0813 94.7983 29.8293 95.3023 29.68C95.825 29.512 96.3943 29.428 97.0103 29.428C98.0556 29.428 98.989 29.68 99.8103 30.184C100.65 30.688 101.313 31.4067 101.798 32.34C102.284 33.2547 102.526 34.356 102.526 35.644ZM98.8303 35.812C98.8303 35.14 98.7183 34.5613 98.4943 34.076C98.2703 33.572 97.9343 33.1893 97.4863 32.928C97.057 32.648 96.5156 32.508 95.8623 32.508C95.0596 32.508 94.369 32.7227 93.7903 33.152V38.836C94.033 38.9293 94.313 39.0133 94.6303 39.088C94.9663 39.144 95.3116 39.172 95.6663 39.172C96.3196 39.172 96.8796 39.0413 97.3463 38.78C97.813 38.5 98.177 38.108 98.4383 37.604C98.6996 37.0813 98.8303 36.484 98.8303 35.812ZM116.493 30.968C116.493 32.0693 116.185 33.0213 115.569 33.824C114.972 34.608 114.216 35.1587 113.301 35.476L117.669 42H113.357L109.661 36.4H107.561V42H103.837V25.368H109.605C111.061 25.368 112.302 25.592 113.329 26.04C114.356 26.4693 115.14 27.104 115.681 27.944C116.222 28.7653 116.493 29.7733 116.493 30.968ZM112.741 30.968C112.741 30.3893 112.601 29.9133 112.321 29.54C112.06 29.148 111.686 28.868 111.201 28.7C110.734 28.5133 110.165 28.42 109.493 28.42H107.561V33.488H109.493C110.165 33.488 110.734 33.404 111.201 33.236C111.686 33.0493 112.06 32.7693 112.321 32.396C112.601 32.0227 112.741 31.5467 112.741 30.968ZM128.868 36.708H120.972C121.084 37.212 121.308 37.6507 121.644 38.024C121.999 38.3787 122.447 38.6493 122.988 38.836C123.548 39.0227 124.202 39.116 124.948 39.116C125.583 39.116 126.264 39.032 126.992 38.864C127.72 38.6773 128.318 38.444 128.784 38.164L128.924 41.216C128.439 41.552 127.786 41.8133 126.964 42C126.162 42.168 125.406 42.252 124.696 42.252C123.11 42.252 121.747 41.9907 120.608 41.468C119.488 40.9267 118.639 40.1707 118.06 39.2C117.5 38.2293 117.22 37.0907 117.22 35.784C117.22 34.496 117.482 33.3853 118.004 32.452C118.546 31.5 119.283 30.7627 120.216 30.24C121.168 29.6987 122.232 29.428 123.408 29.428C124.491 29.428 125.452 29.6427 126.292 30.072C127.151 30.5013 127.814 31.1267 128.28 31.948C128.766 32.7507 129.008 33.7213 129.008 34.86C129.008 35.1027 128.99 35.4013 128.952 35.756C128.934 36.092 128.906 36.4093 128.868 36.708ZM123.436 32.004C122.708 32.004 122.111 32.2467 121.644 32.732C121.196 33.2173 120.926 33.8613 120.832 34.664H125.676C125.676 34.6267 125.676 34.5707 125.676 34.496C125.676 34.4027 125.676 34.3373 125.676 34.3C125.676 33.6093 125.471 33.0587 125.06 32.648C124.668 32.2187 124.127 32.004 123.436 32.004ZM138.773 30.044L138.241 32.956C137.849 32.7693 137.363 32.62 136.785 32.508C136.225 32.3773 135.655 32.312 135.077 32.312C134.554 32.312 134.162 32.396 133.901 32.564C133.658 32.732 133.537 32.956 133.537 33.236C133.537 33.46 133.677 33.656 133.957 33.824C134.237 33.9733 134.591 34.1133 135.021 34.244C135.469 34.3747 135.935 34.5333 136.421 34.72C136.925 34.9067 137.391 35.14 137.821 35.42C138.269 35.7 138.623 36.0733 138.885 36.54C139.165 36.988 139.305 37.5573 139.305 38.248C139.305 38.9573 139.127 39.62 138.773 40.236C138.437 40.8333 137.877 41.3187 137.093 41.692C136.327 42.0653 135.329 42.252 134.097 42.252C133.257 42.252 132.435 42.1587 131.633 41.972C130.849 41.7853 130.214 41.5427 129.729 41.244L129.953 38.22C130.419 38.5187 131.026 38.7893 131.773 39.032C132.538 39.256 133.294 39.368 134.041 39.368C135.105 39.368 135.637 39.0507 135.637 38.416C135.637 38.1733 135.497 37.9773 135.217 37.828C134.937 37.6787 134.582 37.5387 134.153 37.408C133.723 37.2587 133.257 37.0907 132.753 36.904C132.249 36.7173 131.782 36.484 131.353 36.204C130.923 35.9053 130.569 35.532 130.289 35.084C130.009 34.636 129.869 34.0667 129.869 33.376C129.869 32.6293 130.074 31.9667 130.485 31.388C130.914 30.7907 131.521 30.3147 132.305 29.96C133.089 29.6053 134.022 29.428 135.105 29.428C135.833 29.428 136.523 29.484 137.177 29.596C137.83 29.6893 138.362 29.8387 138.773 30.044ZM148.195 29.68L147.943 32.76H144.667V37.436C144.667 38.052 144.817 38.4907 145.115 38.752C145.414 38.9947 145.853 39.116 146.431 39.116C146.749 39.116 147.047 39.0693 147.327 38.976C147.626 38.864 147.878 38.7333 148.083 38.584L148.223 41.608C147.57 42.0373 146.683 42.252 145.563 42.252C144.014 42.252 142.885 41.8693 142.175 41.104C141.466 40.3387 141.111 39.2467 141.111 37.828V32.76H139.431V29.68H141.111V27.104L144.667 26.348V29.68H148.195ZM159.891 42H156.503V41.048C156.055 41.4027 155.514 41.692 154.879 41.916C154.244 42.14 153.544 42.252 152.779 42.252C151.416 42.252 150.371 41.9253 149.643 41.272C148.934 40.6187 148.579 39.7133 148.579 38.556C148.579 37.3053 149.018 36.3627 149.895 35.728C150.772 35.0747 151.958 34.748 153.451 34.748C153.992 34.748 154.534 34.7947 155.075 34.888C155.616 34.9813 156.055 35.1027 156.391 35.252V34.58C156.391 33.852 156.158 33.3387 155.691 33.04C155.243 32.7227 154.534 32.564 153.563 32.564C152.872 32.564 152.163 32.648 151.435 32.816C150.726 32.984 150.156 33.1987 149.727 33.46L149.587 30.324C150.166 30.044 150.847 29.8293 151.631 29.68C152.434 29.512 153.255 29.428 154.095 29.428C155.962 29.428 157.39 29.8293 158.379 30.632C159.387 31.416 159.891 32.6573 159.891 34.356V42ZM156.391 39.144V37.38C156.13 37.2493 155.803 37.1467 155.411 37.072C155.038 36.9973 154.674 36.96 154.319 36.96C153.61 36.96 153.068 37.0907 152.695 37.352C152.322 37.5947 152.135 37.9773 152.135 38.5C152.135 38.9853 152.294 39.34 152.611 39.564C152.928 39.7693 153.395 39.872 154.011 39.872C154.44 39.872 154.879 39.8067 155.327 39.676C155.775 39.5267 156.13 39.3493 156.391 39.144ZM180.443 29.68L176.803 42H172.995L171.539 37.66C171.278 36.764 171.063 36.0453 170.895 35.504C170.727 34.944 170.587 34.4307 170.475 33.964H170.335C170.242 34.4307 170.102 34.944 169.915 35.504C169.747 36.0453 169.533 36.764 169.271 37.66L167.815 42H164.007L160.367 29.764L163.979 29.596L165.631 35.476C165.725 35.868 165.818 36.3347 165.911 36.876C166.023 37.3987 166.107 37.884 166.163 38.332H166.303C166.359 37.884 166.453 37.3987 166.583 36.876C166.714 36.3347 166.835 35.868 166.947 35.476L168.571 30.604H172.379L174.003 35.476C174.115 35.868 174.237 36.3347 174.367 36.876C174.498 37.3987 174.591 37.884 174.647 38.332H174.787C174.843 37.884 174.918 37.3987 175.011 36.876C175.123 36.3347 175.226 35.868 175.319 35.476L176.915 29.68H180.443Z" fill="#FFD0A0"/>
<path d="M48.4377 78H43.5601L41.8427 73.0194H34.6637L32.9119 78H28.2748L35.6942 57.5966H41.0183L48.4377 78ZM40.6748 69.4127L39.0261 64.7756C38.8658 64.3176 38.7284 63.894 38.6139 63.5047C38.5223 63.0925 38.4307 62.6803 38.3391 62.2681H38.1673C38.0757 62.6803 37.9727 63.0925 37.8582 63.5047C37.7666 63.894 37.6407 64.3176 37.4804 64.7756L35.7972 69.4127H40.6748ZM64.2568 78H59.8601V68.9662C59.8601 68.0731 59.6426 67.4319 59.2075 67.0426C58.7724 66.6533 58.177 66.4587 57.4214 66.4587C56.9176 66.4587 56.4023 66.5503 55.8756 66.7335C55.349 66.8938 54.8452 67.1228 54.3643 67.4205V78H49.9676V62.9894L54.3643 62.7833V64.1917C55.0971 63.6421 55.8413 63.2413 56.597 62.9894C57.3756 62.7146 58.1885 62.5772 59.0358 62.5772C60.6158 62.5772 61.8753 63.0238 62.8142 63.9169C63.7759 64.787 64.2568 66.161 64.2568 68.0388V78ZM86.6847 78H82.5284V76.8321C81.9788 77.2672 81.3147 77.6222 80.5362 77.897C79.7576 78.1717 78.8989 78.3091 77.96 78.3091C76.2883 78.3091 75.006 77.9084 74.1129 77.1069C73.2427 76.3054 72.8076 75.1948 72.8076 73.7751C72.8076 72.2408 73.3457 71.0844 74.422 70.3058C75.4983 69.5043 76.9524 69.1036 78.7844 69.1036C79.4484 69.1036 80.1125 69.1608 80.7766 69.2753C81.4407 69.3898 81.9788 69.5387 82.391 69.7219V68.8975C82.391 68.0044 82.1048 67.3747 81.5323 67.0083C80.9827 66.619 80.1125 66.4243 78.9218 66.4243C78.0745 66.4243 77.2043 66.5274 76.3112 66.7335C75.441 66.9396 74.7426 67.2029 74.2159 67.5235L74.0442 63.6764C74.7541 63.3329 75.5899 63.0696 76.5517 62.8864C77.5363 62.6803 78.5439 62.5772 79.5744 62.5772C81.8643 62.5772 83.6161 63.0696 84.8298 64.0543C86.0664 65.016 86.6847 66.5388 86.6847 68.6227V78ZM82.391 74.4964V72.3324C82.0704 72.1721 81.6697 72.0462 81.1888 71.9546C80.7308 71.863 80.2843 71.8172 79.8492 71.8172C78.979 71.8172 78.3149 71.9775 77.8569 72.298C77.3989 72.5957 77.1699 73.0652 77.1699 73.7064C77.1699 74.3017 77.3646 74.7368 77.7539 75.0116C78.1432 75.2635 78.7157 75.3895 79.4713 75.3895C79.998 75.3895 80.5362 75.3093 81.0857 75.149C81.6353 74.9658 82.0704 74.7483 82.391 74.4964ZM112.584 62.8864L108.119 78H103.447L101.661 72.6759C101.341 71.5767 101.077 70.6951 100.871 70.031C100.665 69.344 100.493 68.7143 100.356 68.1418H100.184C100.07 68.7143 99.8979 69.344 99.6689 70.031C99.4628 70.6951 99.1995 71.5767 98.8789 72.6759L97.0927 78H92.4212L87.9558 62.9894L92.3869 62.7833L94.4135 69.9967C94.528 70.4775 94.6425 71.05 94.757 71.7141C94.8944 72.3553 94.9974 72.9507 95.0661 73.5003H95.2379C95.3066 72.9507 95.421 72.3553 95.5813 71.7141C95.7416 71.05 95.8905 70.4775 96.0279 69.9967L98.0201 64.0199H102.692L104.684 69.9967C104.821 70.4775 104.97 71.05 105.13 71.7141C105.291 72.3553 105.405 72.9507 105.474 73.5003H105.646C105.714 72.9507 105.806 72.3553 105.92 71.7141C106.058 71.05 106.184 70.4775 106.298 69.9967L108.256 62.8864H112.584ZM137.767 78H133.37V68.9662C133.37 68.8517 133.359 68.7486 133.336 68.657C133.313 68.5654 133.29 68.4738 133.267 68.3822C133.198 67.6953 132.969 67.2029 132.58 66.9052C132.191 66.6075 131.687 66.4587 131.069 66.4587C131.046 66.4587 131.012 66.4701 130.966 66.493C130.92 66.493 130.886 66.493 130.863 66.493C130.428 66.5159 129.97 66.6075 129.489 66.7678C129.031 66.9281 128.584 67.1457 128.149 67.4205C128.172 67.6266 128.183 67.8327 128.183 68.0388C128.206 68.2449 128.218 68.4624 128.218 68.6914V78H123.855V68.9662C123.855 68.8517 123.844 68.7486 123.821 68.657C123.798 68.5654 123.775 68.4738 123.752 68.3822C123.684 67.6953 123.455 67.2029 123.065 66.9052C122.676 66.6075 122.172 66.4587 121.554 66.4587C121.119 66.4587 120.638 66.5503 120.111 66.7335C119.608 66.8938 119.138 67.1228 118.703 67.4205V78H114.306V62.9894L118.703 62.7833V64.1917C119.207 63.8024 119.711 63.4932 120.214 63.2642C120.741 63.0123 121.256 62.852 121.76 62.7833C122.356 62.6459 122.985 62.6116 123.649 62.6803C124.474 62.7261 125.218 62.9207 125.882 63.2642C126.546 63.6077 127.073 64.123 127.462 64.8099C128.264 64.0314 129.088 63.4703 129.935 63.1268C130.805 62.7604 131.687 62.5772 132.58 62.5772C134.114 62.5772 135.362 63.0238 136.324 63.9169C137.286 64.787 137.767 66.161 137.767 68.0388V78ZM153.648 78H149.492V76.8321C148.942 77.2672 148.278 77.6222 147.499 77.897C146.721 78.1717 145.862 78.3091 144.923 78.3091C143.252 78.3091 141.969 77.9084 141.076 77.1069C140.206 76.3054 139.771 75.1948 139.771 73.7751C139.771 72.2408 140.309 71.0844 141.385 70.3058C142.462 69.5043 143.916 69.1036 145.748 69.1036C146.412 69.1036 147.076 69.1608 147.74 69.2753C148.404 69.3898 148.942 69.5387 149.354 69.7219V68.8975C149.354 68.0044 149.068 67.3747 148.496 67.0083C147.946 66.619 147.076 66.4243 145.885 66.4243C145.038 66.4243 144.168 66.5274 143.275 66.7335C142.404 66.9396 141.706 67.2029 141.179 67.5235L141.008 63.6764C141.717 63.3329 142.553 63.0696 143.515 62.8864C144.5 62.6803 145.507 62.5772 146.538 62.5772C148.828 62.5772 150.579 63.0696 151.793 64.0543C153.03 65.016 153.648 66.5388 153.648 68.6227V78ZM149.354 74.4964V72.3324C149.034 72.1721 148.633 72.0462 148.152 71.9546C147.694 71.863 147.248 71.8172 146.813 71.8172C145.942 71.8172 145.278 71.9775 144.82 72.298C144.362 72.5957 144.133 73.0652 144.133 73.7064C144.133 74.3017 144.328 74.7368 144.717 75.0116C145.107 75.2635 145.679 75.3895 146.435 75.3895C146.961 75.3895 147.499 75.3093 148.049 75.149C148.599 74.9658 149.034 74.7483 149.354 74.4964ZM155.735 78V74.2559L163.12 66.6648H156.147V62.8864H168.341V66.6304L160.99 74.2216H168.753V78H155.735ZM173.205 55.9479C173.892 55.9479 174.453 56.1769 174.888 56.6349C175.323 57.0699 175.541 57.6195 175.541 58.2836C175.541 58.9706 175.323 59.5431 174.888 60.0011C174.453 60.4362 173.892 60.6537 173.205 60.6537C172.495 60.6537 171.9 60.4362 171.419 60.0011C170.961 59.5431 170.732 58.9706 170.732 58.2836C170.732 57.6195 170.961 57.0699 171.419 56.6349C171.9 56.1769 172.495 55.9479 173.205 55.9479ZM175.335 62.7833V78H170.938V62.9894L175.335 62.7833ZM192.532 78H188.135V68.9662C188.135 68.0731 187.918 67.4319 187.483 67.0426C187.048 66.6533 186.452 66.4587 185.697 66.4587C185.193 66.4587 184.677 66.5503 184.151 66.7335C183.624 66.8938 183.12 67.1228 182.639 67.4205V78H178.243V62.9894L182.639 62.7833V64.1917C183.372 63.6421 184.116 63.2413 184.872 62.9894C185.651 62.7146 186.464 62.5772 187.311 62.5772C188.891 62.5772 190.15 63.0238 191.089 63.9169C192.051 64.787 192.532 66.161 192.532 68.0388V78ZM209.526 62.3712L209.492 65.7717H207.225C207.454 66.0694 207.625 66.4129 207.74 66.8022C207.877 67.1686 207.946 67.5579 207.946 67.9701C207.946 69.5501 207.396 70.821 206.297 71.7828C205.198 72.7217 203.698 73.2369 201.797 73.3285L200.217 74.8742C200.492 74.8284 200.813 74.7941 201.179 74.7712C201.546 74.7254 201.912 74.7025 202.278 74.7025C202.645 74.6796 202.931 74.6681 203.137 74.6681C205.267 74.6681 206.893 75.0803 208.015 75.9047C209.16 76.7062 209.732 77.8741 209.732 79.4083C209.732 80.9197 209.102 82.1677 207.843 83.1524C206.606 84.1599 204.603 84.6637 201.832 84.6637C200.229 84.6637 198.729 84.5149 197.332 84.2172C195.958 83.9195 194.847 83.5188 194 83.015L194.344 79.2366C194.825 79.5801 195.477 79.8892 196.302 80.164C197.126 80.4388 198.042 80.6563 199.049 80.8166C200.08 80.9998 201.088 81.0914 202.072 81.0914C203.057 81.0914 203.801 81.0227 204.305 80.8853C204.809 80.7708 205.164 80.5876 205.37 80.3357C205.576 80.1067 205.679 79.8205 205.679 79.477C205.679 78.9503 205.416 78.5725 204.889 78.3435C204.385 78.1374 203.435 78.0343 202.038 78.0343C201.191 78.0343 200.286 78.0687 199.324 78.1374C198.362 78.2061 197.538 78.3206 196.851 78.4809V75.4238L199.29 73.1224C197.824 72.8476 196.691 72.2408 195.889 71.3019C195.088 70.363 194.687 69.2524 194.687 67.9701C194.687 66.8709 194.95 65.9206 195.477 65.1191C196.027 64.3176 196.794 63.6993 197.779 63.2642C198.786 62.8062 199.965 62.5772 201.317 62.5772C202.255 62.5772 203.126 62.7032 203.927 62.9551L209.526 62.3712ZM203.927 67.9701C203.927 67.2602 203.687 66.6762 203.206 66.2183C202.748 65.7603 202.118 65.5313 201.317 65.5313C200.492 65.5313 199.839 65.7603 199.359 66.2183C198.901 66.6762 198.672 67.2602 198.672 67.9701C198.672 68.657 198.901 69.2295 199.359 69.6875C199.839 70.1455 200.492 70.3745 201.317 70.3745C202.118 70.3745 202.748 70.157 203.206 69.7219C203.687 69.2639 203.927 68.6799 203.927 67.9701ZM236.657 78H231.78L230.062 73.0194H222.883L221.132 78H216.495L223.914 57.5966H229.238L236.657 78ZM228.895 69.4127L227.246 64.7756C227.085 64.3176 226.948 63.894 226.834 63.5047C226.742 63.0925 226.65 62.6803 226.559 62.2681H226.387C226.295 62.6803 226.192 63.0925 226.078 63.5047C225.986 63.894 225.86 64.3176 225.7 64.7756L224.017 69.4127H228.895ZM254.057 64.6038C254.057 66.1152 253.713 67.3976 253.026 68.4509C252.362 69.5043 251.389 70.2943 250.106 70.821C248.824 71.3477 247.278 71.6111 245.469 71.6111H243.065V78H238.496V57.5966H245.504C247.313 57.5966 248.847 57.8714 250.106 58.421C251.389 58.9706 252.362 59.7606 253.026 60.7911C253.713 61.8216 254.057 63.0925 254.057 64.6038ZM249.488 64.6038C249.488 63.8482 249.316 63.2299 248.973 62.749C248.652 62.2681 248.183 61.9132 247.565 61.6842C246.969 61.4552 246.248 61.3407 245.401 61.3407H243.065V67.867H245.401C246.248 67.867 246.969 67.7525 247.565 67.5235C248.183 67.2945 248.652 66.9396 248.973 66.4587C249.316 65.9778 249.488 65.3595 249.488 64.6038ZM261.104 57.5966V78H256.535V57.5966H261.104ZM53.1092 91.8864L48.6438 107H43.9723L42.1862 101.676C41.8656 100.577 41.6022 99.6951 41.3962 99.031C41.1901 98.344 41.0183 97.7143 40.8809 97.1418H40.7092C40.5947 97.7143 40.4229 98.344 40.1939 99.031C39.9878 99.6951 39.7245 100.577 39.4039 101.676L37.6178 107H32.9463L28.4809 91.9894L32.9119 91.7833L34.9385 98.9967C35.053 99.4775 35.1675 100.05 35.282 100.714C35.4194 101.355 35.5225 101.951 35.5912 102.5H35.7629C35.8316 101.951 35.9461 101.355 36.1064 100.714C36.2667 100.05 36.4155 99.4775 36.5529 98.9967L38.5452 93.0199H43.2167L45.2089 98.9967C45.3463 99.4775 45.4951 100.05 45.6554 100.714C45.8157 101.355 45.9302 101.951 45.9989 102.5H46.1707C46.2394 101.951 46.331 101.355 46.4455 100.714C46.5829 100.05 46.7088 99.4775 46.8233 98.9967L48.7812 91.8864H53.1092ZM64.4492 91.749L64.2775 95.9739C64.1401 95.9052 63.8997 95.8365 63.5562 95.7678C63.2356 95.6991 62.9264 95.6648 62.6287 95.6648C62.0105 95.6648 61.4036 95.7793 60.8082 96.0083C60.2358 96.2144 59.7091 96.5006 59.2282 96.867V107H54.8315V91.9894L59.2282 91.7833V93.5695C59.8923 92.8825 60.5678 92.3787 61.2548 92.0581C61.9647 91.7375 62.6974 91.5772 63.4531 91.5772C63.6134 91.5772 63.7852 91.5887 63.9684 91.6116C64.1744 91.6345 64.3347 91.6803 64.4492 91.749ZM79.1118 107H74.9555V105.832C74.4059 106.267 73.7418 106.622 72.9633 106.897C72.1847 107.172 71.326 107.309 70.3871 107.309C68.7154 107.309 67.4331 106.908 66.54 106.107C65.6698 105.305 65.2347 104.195 65.2347 102.775C65.2347 101.241 65.7728 100.084 66.8491 99.3058C67.9254 98.5043 69.3795 98.1036 71.2115 98.1036C71.8755 98.1036 72.5396 98.1608 73.2037 98.2753C73.8678 98.3898 74.4059 98.5387 74.8181 98.7219V97.8975C74.8181 97.0044 74.5319 96.3747 73.9594 96.0083C73.4098 95.619 72.5396 95.4243 71.3489 95.4243C70.5016 95.4243 69.6314 95.5274 68.7383 95.7335C67.8681 95.9396 67.1697 96.2029 66.643 96.5235L66.4713 92.6764C67.1812 92.3329 68.017 92.0696 68.9788 91.8864C69.9634 91.6803 70.971 91.5772 72.0015 91.5772C74.2914 91.5772 76.0432 92.0696 77.2569 93.0543C78.4935 94.016 79.1118 95.5388 79.1118 97.6227V107ZM74.8181 103.496V101.332C74.4975 101.172 74.0968 101.046 73.6159 100.955C73.1579 100.863 72.7114 100.817 72.2763 100.817C71.4061 100.817 70.742 100.977 70.284 101.298C69.826 101.596 69.597 102.065 69.597 102.706C69.597 103.302 69.7917 103.737 70.181 104.012C70.5703 104.264 71.1428 104.389 71.8984 104.389C72.4251 104.389 72.9633 104.309 73.5128 104.149C74.0624 103.966 74.4975 103.748 74.8181 103.496ZM97.0997 99.2714C97.0997 100.806 96.7676 102.18 96.1036 103.393C95.4624 104.607 94.5693 105.569 93.4243 106.279C92.3023 106.966 90.997 107.309 89.5085 107.309C88.2262 107.309 87.1842 107.103 86.3828 106.691V113.355H81.9861V91.9894L86.3828 91.7833V92.8825C86.9094 92.4474 87.4934 92.1268 88.1346 91.9207C88.7757 91.6917 89.5085 91.5772 90.3329 91.5772C91.5924 91.5772 92.7259 91.8864 93.7335 92.5047C94.7639 93.123 95.5769 94.0046 96.1723 95.1496C96.7905 96.2945 97.0997 97.6685 97.0997 99.2714ZM92.5656 99.4088C92.5656 98.5845 92.4282 97.8746 92.1534 97.2792C91.8786 96.6609 91.4664 96.1915 90.9168 95.8709C90.3902 95.5274 89.7261 95.3556 88.9246 95.3556C87.9399 95.3556 87.0926 95.619 86.3828 96.1457V103.119C86.6805 103.233 87.0239 103.336 87.4132 103.428C87.8254 103.496 88.2491 103.531 88.6842 103.531C89.4856 103.531 90.1726 103.37 90.7451 103.05C91.3176 102.706 91.7641 102.225 92.0847 101.607C92.4053 100.966 92.5656 100.233 92.5656 99.4088ZM114.199 99.2714C114.199 100.806 113.867 102.18 113.203 103.393C112.562 104.607 111.669 105.569 110.524 106.279C109.402 106.966 108.096 107.309 106.608 107.309C105.326 107.309 104.284 107.103 103.482 106.691V113.355H99.0855V91.9894L103.482 91.7833V92.8825C104.009 92.4474 104.593 92.1268 105.234 91.9207C105.875 91.6917 106.608 91.5772 107.432 91.5772C108.692 91.5772 109.825 91.8864 110.833 92.5047C111.863 93.123 112.676 94.0046 113.272 95.1496C113.89 96.2945 114.199 97.6685 114.199 99.2714ZM109.665 99.4088C109.665 98.5845 109.528 97.8746 109.253 97.2792C108.978 96.6609 108.566 96.1915 108.016 95.8709C107.49 95.5274 106.825 95.3556 106.024 95.3556C105.039 95.3556 104.192 95.619 103.482 96.1457V103.119C103.78 103.233 104.123 103.336 104.513 103.428C104.925 103.496 105.348 103.531 105.784 103.531C106.585 103.531 107.272 103.37 107.845 103.05C108.417 102.706 108.864 102.225 109.184 101.607C109.505 100.966 109.665 100.233 109.665 99.4088ZM129.581 100.508H119.895C120.032 101.126 120.307 101.664 120.719 102.122C121.154 102.558 121.704 102.89 122.368 103.119C123.055 103.348 123.856 103.462 124.772 103.462C125.551 103.462 126.387 103.359 127.28 103.153C128.173 102.924 128.906 102.638 129.478 102.294L129.65 106.038C129.054 106.45 128.253 106.771 127.245 107C126.261 107.206 125.333 107.309 124.463 107.309C122.517 107.309 120.845 106.989 119.448 106.347C118.074 105.683 117.032 104.756 116.322 103.565C115.635 102.374 115.292 100.977 115.292 99.3745C115.292 97.7944 115.612 96.4319 116.254 95.287C116.918 94.1191 117.822 93.2146 118.967 92.5734C120.135 91.9093 121.44 91.5772 122.883 91.5772C124.211 91.5772 125.39 91.8406 126.421 92.3673C127.474 92.894 128.287 93.6611 128.86 94.6687C129.455 95.6533 129.753 96.8441 129.753 98.241C129.753 98.5387 129.73 98.9051 129.684 99.3401C129.661 99.7523 129.627 100.142 129.581 100.508ZM122.917 94.7374C122.024 94.7374 121.291 95.0351 120.719 95.6304C120.169 96.2258 119.837 97.0159 119.723 98.0005H125.665C125.665 97.9547 125.665 97.886 125.665 97.7944C125.665 97.6799 125.665 97.5998 125.665 97.554C125.665 96.7067 125.413 96.0312 124.91 95.5274C124.429 95.0007 123.765 94.7374 122.917 94.7374ZM141.594 91.749L141.422 95.9739C141.285 95.9052 141.044 95.8365 140.701 95.7678C140.38 95.6991 140.071 95.6648 139.773 95.6648C139.155 95.6648 138.548 95.7793 137.953 96.0083C137.38 96.2144 136.854 96.5006 136.373 96.867V107H131.976V91.9894L136.373 91.7833V93.5695C137.037 92.8825 137.712 92.3787 138.399 92.0581C139.109 91.7375 139.842 91.5772 140.598 91.5772C140.758 91.5772 140.93 91.5887 141.113 91.6116C141.319 91.6345 141.479 91.6803 141.594 91.749ZM159.114 85.4631L158.942 89.2415C158.782 89.1728 158.564 89.127 158.29 89.1041C158.038 89.0812 157.797 89.0698 157.568 89.0698C156.744 89.0698 156.114 89.253 155.679 89.6193C155.244 89.9857 155.027 90.5926 155.027 91.4399V91.8864H158.771L158.461 95.6648H155.027V107H150.63V95.6648H148.569V91.8864H150.63V91.3712C150.63 89.356 151.214 87.8332 152.382 86.8027C153.55 85.7493 155.118 85.2227 157.087 85.2227C157.408 85.2227 157.763 85.2456 158.152 85.2914C158.542 85.3372 158.862 85.3944 159.114 85.4631ZM175.888 99.4432C175.888 100.955 175.533 102.306 174.823 103.496C174.136 104.687 173.174 105.626 171.938 106.313C170.701 106.977 169.293 107.309 167.713 107.309C166.133 107.309 164.724 106.977 163.488 106.313C162.251 105.626 161.278 104.687 160.568 103.496C159.881 102.306 159.538 100.955 159.538 99.4432C159.538 97.9089 159.881 96.5579 160.568 95.39C161.278 94.1992 162.251 93.2718 163.488 92.6077C164.724 91.9207 166.133 91.5772 167.713 91.5772C169.293 91.5772 170.701 91.9207 171.938 92.6077C173.174 93.2718 174.136 94.1992 174.823 95.39C175.533 96.5579 175.888 97.9089 175.888 99.4432ZM171.354 99.4432C171.354 98.6417 171.194 97.9433 170.873 97.3479C170.552 96.7296 170.117 96.2602 169.568 95.9396C169.018 95.5961 168.4 95.4243 167.713 95.4243C167.026 95.4243 166.408 95.5961 165.858 95.9396C165.308 96.2602 164.873 96.7296 164.553 97.3479C164.232 97.9433 164.072 98.6417 164.072 99.4432C164.072 100.245 164.232 100.955 164.553 101.573C164.873 102.168 165.308 102.638 165.858 102.981C166.431 103.302 167.049 103.462 167.713 103.462C168.423 103.462 169.052 103.302 169.602 102.981C170.152 102.638 170.575 102.168 170.873 101.573C171.194 100.955 171.354 100.245 171.354 99.4432ZM187.483 91.749L187.312 95.9739C187.174 95.9052 186.934 95.8365 186.59 95.7678C186.27 95.6991 185.961 95.6648 185.663 95.6648C185.045 95.6648 184.438 95.7793 183.842 96.0083C183.27 96.2144 182.743 96.5006 182.262 96.867V107H177.866V91.9894L182.262 91.7833V93.5695C182.926 92.8825 183.602 92.3787 184.289 92.0581C184.999 91.7375 185.732 91.5772 186.487 91.5772C186.648 91.5772 186.819 91.5887 187.003 91.6116C187.209 91.6345 187.369 91.6803 187.483 91.749Z" fill="white"/>
<path d="M225.132 86.5966L219.259 107H214.072L210.603 95.8709C210.465 95.4129 210.339 94.9664 210.225 94.5313C210.133 94.0962 210.064 93.684 210.019 93.2947H209.847C209.801 93.684 209.732 94.0962 209.641 94.5313C209.549 94.9664 209.435 95.4129 209.297 95.8709L205.794 107H200.641L194.733 86.5966H199.542L202.874 99.3401C202.989 99.7981 203.092 100.222 203.183 100.611C203.275 101 203.355 101.401 203.424 101.813H203.595C203.641 101.401 203.71 101 203.801 100.611C203.893 100.222 204.008 99.7981 204.145 99.3401L207.477 88.211H212.629L215.961 99.3401C216.098 99.7981 216.213 100.222 216.305 100.611C216.396 101 216.476 101.401 216.545 101.813H216.682C216.751 101.401 216.831 101.012 216.923 100.645C217.014 100.256 217.117 99.821 217.232 99.3401L220.564 86.5966H225.132ZM239.004 100.508H229.318C229.455 101.126 229.73 101.664 230.142 102.122C230.577 102.558 231.127 102.89 231.791 103.119C232.478 103.348 233.28 103.462 234.196 103.462C234.974 103.462 235.81 103.359 236.703 103.153C237.596 102.924 238.329 102.638 238.901 102.294L239.073 106.038C238.478 106.45 237.676 106.771 236.669 107C235.684 107.206 234.757 107.309 233.886 107.309C231.94 107.309 230.268 106.989 228.871 106.347C227.498 105.683 226.456 104.756 225.746 103.565C225.059 102.374 224.715 100.977 224.715 99.3745C224.715 97.7944 225.036 96.4319 225.677 95.287C226.341 94.1191 227.246 93.2146 228.391 92.5734C229.558 91.9093 230.864 91.5772 232.306 91.5772C233.635 91.5772 234.814 91.8406 235.844 92.3673C236.898 92.894 237.711 93.6611 238.283 94.6687C238.879 95.6533 239.176 96.8441 239.176 98.241C239.176 98.5387 239.153 98.9051 239.108 99.3401C239.085 99.7523 239.05 100.142 239.004 100.508ZM232.341 94.7374C231.448 94.7374 230.715 95.0351 230.142 95.6304C229.593 96.2258 229.261 97.0159 229.146 98.0005H235.089C235.089 97.9547 235.089 97.886 235.089 97.7944C235.089 97.6799 235.089 97.5998 235.089 97.554C235.089 96.7067 234.837 96.0312 234.333 95.5274C233.852 95.0007 233.188 94.7374 232.341 94.7374ZM256.513 99.2028C256.513 100.806 256.17 102.225 255.483 103.462C254.796 104.676 253.811 105.626 252.529 106.313C251.246 106.977 249.712 107.309 247.926 107.309C246.689 107.309 245.51 107.183 244.388 106.931C243.266 106.657 242.27 106.313 241.4 105.901V85.4288L245.796 85.2227V92.8138C246.414 92.3787 247.033 92.0696 247.651 91.8864C248.292 91.6803 248.991 91.5772 249.746 91.5772C251.029 91.5772 252.174 91.8864 253.181 92.5047C254.212 93.123 255.025 94.0046 255.62 95.1496C256.215 96.2716 256.513 97.6227 256.513 99.2028ZM251.979 99.4088C251.979 98.5845 251.842 97.8746 251.567 97.2792C251.292 96.6609 250.88 96.1915 250.33 95.8709C249.804 95.5274 249.14 95.3556 248.338 95.3556C247.353 95.3556 246.506 95.619 245.796 96.1457V103.119C246.094 103.233 246.437 103.336 246.827 103.428C247.239 103.496 247.662 103.531 248.098 103.531C248.899 103.531 249.586 103.37 250.159 103.05C250.731 102.706 251.178 102.225 251.498 101.607C251.819 100.966 251.979 100.233 251.979 99.4088ZM274.334 93.4664C274.334 94.8175 273.956 95.9854 273.2 96.9701C272.468 97.9318 271.54 98.6074 270.418 98.9967L275.777 107H270.487L265.953 100.13H263.376V107H258.808V86.5966H265.884C267.67 86.5966 269.193 86.8714 270.452 87.421C271.712 87.9477 272.674 88.7263 273.338 89.7567C274.002 90.7643 274.334 92.0009 274.334 93.4664ZM269.731 93.4664C269.731 92.7566 269.559 92.1726 269.216 91.7146C268.895 91.2338 268.437 90.8903 267.842 90.6842C267.269 90.4552 266.571 90.3407 265.747 90.3407H263.376V96.5579H265.747C266.571 96.5579 267.269 96.4548 267.842 96.2487C268.437 96.0197 268.895 95.6762 269.216 95.2183C269.559 94.7603 269.731 94.1763 269.731 93.4664ZM290.202 100.508H280.516C280.653 101.126 280.928 101.664 281.34 102.122C281.775 102.558 282.325 102.89 282.989 103.119C283.676 103.348 284.477 103.462 285.393 103.462C286.172 103.462 287.008 103.359 287.901 103.153C288.794 102.924 289.527 102.638 290.099 102.294L290.271 106.038C289.675 106.45 288.874 106.771 287.866 107C286.882 107.206 285.954 107.309 285.084 107.309C283.138 107.309 281.466 106.989 280.069 106.347C278.695 105.683 277.653 104.756 276.943 103.565C276.256 102.374 275.913 100.977 275.913 99.3745C275.913 97.7944 276.233 96.4319 276.875 95.287C277.539 94.1191 278.443 93.2146 279.588 92.5734C280.756 91.9093 282.061 91.5772 283.504 91.5772C284.832 91.5772 286.011 91.8406 287.042 92.3673C288.095 92.894 288.908 93.6611 289.481 94.6687C290.076 95.6533 290.374 96.8441 290.374 98.241C290.374 98.5387 290.351 98.9051 290.305 99.3401C290.282 99.7523 290.248 100.142 290.202 100.508ZM283.538 94.7374C282.645 94.7374 281.912 95.0351 281.34 95.6304C280.79 96.2258 280.458 97.0159 280.344 98.0005H286.286C286.286 97.9547 286.286 97.886 286.286 97.7944C286.286 97.6799 286.286 97.5998 286.286 97.554C286.286 96.7067 286.034 96.0312 285.531 95.5274C285.05 95.0007 284.386 94.7374 283.538 94.7374ZM303.039 92.3329L302.387 95.9052C301.906 95.6762 301.31 95.493 300.6 95.3556C299.913 95.1954 299.215 95.1152 298.505 95.1152C297.864 95.1152 297.383 95.2183 297.063 95.4243C296.765 95.6304 296.616 95.9052 296.616 96.2487C296.616 96.5235 296.788 96.764 297.131 96.9701C297.475 97.1533 297.91 97.325 298.436 97.4853C298.986 97.6456 299.559 97.8402 300.154 98.0692C300.772 98.2982 301.345 98.5845 301.871 98.928C302.421 99.2714 302.856 99.7294 303.177 100.302C303.52 100.852 303.692 101.55 303.692 102.397C303.692 103.267 303.474 104.08 303.039 104.836C302.627 105.569 301.94 106.164 300.978 106.622C300.039 107.08 298.814 107.309 297.303 107.309C296.272 107.309 295.265 107.195 294.28 106.966C293.318 106.737 292.54 106.439 291.945 106.073L292.219 102.363C292.792 102.729 293.536 103.061 294.452 103.359C295.391 103.634 296.318 103.771 297.234 103.771C298.54 103.771 299.192 103.382 299.192 102.603C299.192 102.306 299.02 102.065 298.677 101.882C298.333 101.699 297.898 101.527 297.372 101.367C296.845 101.184 296.272 100.977 295.654 100.748C295.036 100.519 294.463 100.233 293.937 99.8897C293.41 99.5233 292.975 99.0654 292.631 98.5158C292.288 97.9662 292.116 97.2678 292.116 96.4205C292.116 95.5045 292.368 94.6916 292.872 93.9817C293.399 93.2489 294.143 92.665 295.105 92.2299C296.066 91.7948 297.211 91.5772 298.54 91.5772C299.433 91.5772 300.28 91.6459 301.081 91.7833C301.883 91.8978 302.535 92.081 303.039 92.3329ZM315.286 91.8864L314.977 95.6648H310.958V101.401C310.958 102.157 311.141 102.695 311.507 103.016C311.874 103.313 312.412 103.462 313.122 103.462C313.511 103.462 313.877 103.405 314.221 103.29C314.587 103.153 314.897 102.993 315.148 102.809L315.32 106.519C314.519 107.046 313.431 107.309 312.057 107.309C310.156 107.309 308.771 106.84 307.901 105.901C307.031 104.962 306.595 103.622 306.595 101.882V95.6648H304.535V91.8864H306.595V88.7263L310.958 87.7988V91.8864H315.286ZM332.794 99.4432C332.794 100.955 332.439 102.306 331.729 103.496C331.042 104.687 330.08 105.626 328.843 106.313C327.607 106.977 326.199 107.309 324.619 107.309C323.038 107.309 321.63 106.977 320.394 106.313C319.157 105.626 318.184 104.687 317.474 103.496C316.787 102.306 316.443 100.955 316.443 99.4432C316.443 97.9089 316.787 96.5579 317.474 95.39C318.184 94.1992 319.157 93.2718 320.394 92.6077C321.63 91.9207 323.038 91.5772 324.619 91.5772C326.199 91.5772 327.607 91.9207 328.843 92.6077C330.08 93.2718 331.042 94.1992 331.729 95.39C332.439 96.5579 332.794 97.9089 332.794 99.4432ZM328.26 99.4432C328.26 98.6417 328.099 97.9433 327.779 97.3479C327.458 96.7296 327.023 96.2602 326.473 95.9396C325.924 95.5961 325.306 95.4243 324.619 95.4243C323.932 95.4243 323.313 95.5961 322.764 95.9396C322.214 96.2602 321.779 96.7296 321.458 97.3479C321.138 97.9433 320.978 98.6417 320.978 99.4432C320.978 100.245 321.138 100.955 321.458 101.573C321.779 102.168 322.214 102.638 322.764 102.981C323.336 103.302 323.954 103.462 324.619 103.462C325.328 103.462 325.958 103.302 326.508 102.981C327.057 102.638 327.481 102.168 327.779 101.573C328.099 100.955 328.26 100.245 328.26 99.4432Z" fill="#FFD0A0"/>
<g style="mix-blend-mode:overlay">
<path fill-rule="evenodd" clip-rule="evenodd" d="M477.798 -3.92365L379 -3.92364V-55L477.798 -55L477.798 -3.92365L529.11 -3.92364V94.7405L477.798 95.3454L477.798 47.5157C451.624 47.9714 430.547 69.211 430.547 95.3454H379C379 40.9038 423.155 -3.46485 477.798 -3.92365Z" fill="#FFD0A0"/>
<path fill-rule="evenodd" clip-rule="evenodd" d="M580.893 94.9329L679.691 94.9293V146.187H580.893V94.9293L529.111 94.7407V-3.92344L580.893 -3.92344V43.6713C607.067 43.2156 628.127 22.211 628.127 -3.92344H679.221C679.221 50.5181 635.536 94.4705 580.893 94.9293V94.9329Z" fill="#FFD0A0" fill-opacity="0.5"/>
<path fill-rule="evenodd" clip-rule="evenodd" d="M778.489 47.0959L679.221 47.0959V-3.92334L778.489 -3.92334V47.0995L830.036 47.0995V146.187H778.489V98.3574C752.315 98.8132 731.238 120.053 731.238 146.187H679.691C679.691 91.7456 723.845 47.5583 778.489 47.0995V47.0959Z" fill="#FFD0A0" fill-opacity="0.7"/>
</g>
</g>
<rect x="0.5" y="0.5" width="829" height="134" rx="13.5" stroke="url(#paint2_linear_375_6491)" style="mix-blend-mode:overlay"/>
<rect x="0.5" y="0.5" width="829" height="134" rx="13.5" stroke="url(#paint3_linear_375_6491)" stroke-opacity="0.1"/>
<rect x="0.5" y="0.5" width="829" height="134" rx="13.5" stroke="white" stroke-opacity="0.1"/>
<defs>
<radialGradient id="paint0_radial_375_6491" cx="0" cy="0" r="1" gradientUnits="userSpaceOnUse" gradientTransform="translate(9.4458e-07 165.586) rotate(17.7974) scale(413.385 308.037)">
<stop offset="0.100613" stop-color="#FFD0A0" stop-opacity="0"/>
<stop offset="0.515" stop-color="#B16F2B"/>
<stop offset="1" stop-color="#BC762F" stop-opacity="0.35"/>
</radialGradient>
<radialGradient id="paint1_radial_375_6491" cx="0" cy="0" r="1" gradientUnits="userSpaceOnUse" gradientTransform="translate(1075 -132) rotate(110.154) scale(458.578 1768.11)">
<stop stop-color="#B16F2B" stop-opacity="0"/>
<stop offset="0.5" stop-color="#B16F2B"/>
<stop offset="1" stop-color="#B16F2B" stop-opacity="0.184314"/>
</radialGradient>
<linearGradient id="paint2_linear_375_6491" x1="415" y1="0" x2="415" y2="135" gradientUnits="userSpaceOnUse">
<stop stop-color="white" stop-opacity="0.6"/>
<stop offset="0.5" stop-color="white" stop-opacity="0"/>
<stop offset="1" stop-color="white"/>
</linearGradient>
<linearGradient id="paint3_linear_375_6491" x1="415" y1="0" x2="415" y2="135" gradientUnits="userSpaceOnUse">
<stop stop-color="white" stop-opacity="0.6"/>
<stop offset="0.5" stop-color="white" stop-opacity="0"/>
<stop offset="1" stop-color="white"/>
</linearGradient>
<clipPath id="clip0_375_6491">
<rect width="830" height="135" rx="14" fill="white"/>
</clipPath>
</defs>
</svg>
