<svg width="640" height="320" viewBox="0 0 640 320" fill="none" xmlns="http://www.w3.org/2000/svg">
<g clip-path="url(#clip0_375_6481)">
<rect width="640" height="320" fill="#161A30"/>
<rect width="640" height="320" fill="#1C160D"/>
<rect width="640" height="320" fill="url(#paint0_radial_375_6481)" fill-opacity="0.2"/>
<rect width="640" height="320" fill="url(#paint1_radial_375_6481)" fill-opacity="0.2"/>
<path d="M66.18 238H59.932L57.732 231.62H48.536L46.292 238H40.352L49.856 211.864H56.676L66.18 238ZM56.236 227L54.124 221.06C53.9187 220.473 53.7427 219.931 53.596 219.432C53.4787 218.904 53.3613 218.376 53.244 217.848H53.024C52.9067 218.376 52.7747 218.904 52.628 219.432C52.5107 219.931 52.3493 220.473 52.144 221.06L49.988 227H56.236ZM86.4437 238H80.8117V226.428C80.8117 225.284 80.5331 224.463 79.9757 223.964C79.4184 223.465 78.6557 223.216 77.6877 223.216C77.0424 223.216 76.3824 223.333 75.7077 223.568C75.0331 223.773 74.3877 224.067 73.7717 224.448V238H68.1397V218.772L73.7717 218.508V220.312C74.7104 219.608 75.6637 219.095 76.6317 218.772C77.6291 218.42 78.6704 218.244 79.7557 218.244C81.7797 218.244 83.3931 218.816 84.5957 219.96C85.8277 221.075 86.4437 222.835 86.4437 225.24V238ZM115.173 238H109.849V236.504C109.145 237.061 108.294 237.516 107.297 237.868C106.3 238.22 105.2 238.396 103.997 238.396C101.856 238.396 100.213 237.883 99.069 236.856C97.9543 235.829 97.397 234.407 97.397 232.588C97.397 230.623 98.0863 229.141 99.465 228.144C100.844 227.117 102.706 226.604 105.053 226.604C105.904 226.604 106.754 226.677 107.605 226.824C108.456 226.971 109.145 227.161 109.673 227.396V226.34C109.673 225.196 109.306 224.389 108.573 223.92C107.869 223.421 106.754 223.172 105.229 223.172C104.144 223.172 103.029 223.304 101.885 223.568C100.77 223.832 99.8756 224.169 99.201 224.58L98.981 219.652C99.8903 219.212 100.961 218.875 102.193 218.64C103.454 218.376 104.745 218.244 106.065 218.244C108.998 218.244 111.242 218.875 112.797 220.136C114.381 221.368 115.173 223.319 115.173 225.988V238ZM109.673 233.512V230.74C109.262 230.535 108.749 230.373 108.133 230.256C107.546 230.139 106.974 230.08 106.417 230.08C105.302 230.08 104.452 230.285 103.865 230.696C103.278 231.077 102.985 231.679 102.985 232.5C102.985 233.263 103.234 233.82 103.733 234.172C104.232 234.495 104.965 234.656 105.933 234.656C106.608 234.656 107.297 234.553 108.001 234.348C108.705 234.113 109.262 233.835 109.673 233.512ZM148.349 218.64L142.629 238H136.645L134.357 231.18C133.947 229.772 133.609 228.643 133.345 227.792C133.081 226.912 132.861 226.105 132.685 225.372H132.465C132.319 226.105 132.099 226.912 131.805 227.792C131.541 228.643 131.204 229.772 130.793 231.18L128.505 238H122.521L116.801 218.772L122.477 218.508L125.073 227.748C125.22 228.364 125.367 229.097 125.513 229.948C125.689 230.769 125.821 231.532 125.909 232.236H126.129C126.217 231.532 126.364 230.769 126.569 229.948C126.775 229.097 126.965 228.364 127.141 227.748L129.693 220.092H135.677L138.229 227.748C138.405 228.364 138.596 229.097 138.801 229.948C139.007 230.769 139.153 231.532 139.241 232.236H139.461C139.549 231.532 139.667 230.769 139.813 229.948C139.989 229.097 140.151 228.364 140.297 227.748L142.805 218.64H148.349ZM180.608 238H174.976V226.428C174.976 226.281 174.961 226.149 174.932 226.032C174.902 225.915 174.873 225.797 174.844 225.68C174.756 224.8 174.462 224.169 173.964 223.788C173.465 223.407 172.82 223.216 172.028 223.216C171.998 223.216 171.954 223.231 171.896 223.26C171.837 223.26 171.793 223.26 171.764 223.26C171.206 223.289 170.62 223.407 170.004 223.612C169.417 223.817 168.845 224.096 168.288 224.448C168.317 224.712 168.332 224.976 168.332 225.24C168.361 225.504 168.376 225.783 168.376 226.076V238H162.788V226.428C162.788 226.281 162.773 226.149 162.744 226.032C162.714 225.915 162.685 225.797 162.656 225.68C162.568 224.8 162.274 224.169 161.776 223.788C161.277 223.407 160.632 223.216 159.84 223.216C159.282 223.216 158.666 223.333 157.992 223.568C157.346 223.773 156.745 224.067 156.188 224.448V238H150.556V218.772L156.188 218.508V220.312C156.833 219.813 157.478 219.417 158.124 219.124C158.798 218.801 159.458 218.596 160.104 218.508C160.866 218.332 161.673 218.288 162.524 218.376C163.58 218.435 164.533 218.684 165.384 219.124C166.234 219.564 166.909 220.224 167.408 221.104C168.434 220.107 169.49 219.388 170.576 218.948C171.69 218.479 172.82 218.244 173.964 218.244C175.929 218.244 177.528 218.816 178.76 219.96C179.992 221.075 180.608 222.835 180.608 225.24V238ZM200.951 238H195.627V236.504C194.923 237.061 194.072 237.516 193.075 237.868C192.077 238.22 190.977 238.396 189.775 238.396C187.633 238.396 185.991 237.883 184.847 236.856C183.732 235.829 183.175 234.407 183.175 232.588C183.175 230.623 183.864 229.141 185.243 228.144C186.621 227.117 188.484 226.604 190.831 226.604C191.681 226.604 192.532 226.677 193.383 226.824C194.233 226.971 194.923 227.161 195.451 227.396V226.34C195.451 225.196 195.084 224.389 194.351 223.92C193.647 223.421 192.532 223.172 191.007 223.172C189.921 223.172 188.807 223.304 187.663 223.568C186.548 223.832 185.653 224.169 184.979 224.58L184.759 219.652C185.668 219.212 186.739 218.875 187.971 218.64C189.232 218.376 190.523 218.244 191.843 218.244C194.776 218.244 197.02 218.875 198.575 220.136C200.159 221.368 200.951 223.319 200.951 225.988V238ZM195.451 233.512V230.74C195.04 230.535 194.527 230.373 193.911 230.256C193.324 230.139 192.752 230.08 192.195 230.08C191.08 230.08 190.229 230.285 189.643 230.696C189.056 231.077 188.763 231.679 188.763 232.5C188.763 233.263 189.012 233.82 189.511 234.172C190.009 234.495 190.743 234.656 191.711 234.656C192.385 234.656 193.075 234.553 193.779 234.348C194.483 234.113 195.04 233.835 195.451 233.512ZM203.624 238V233.204L213.084 223.48H204.152V218.64H219.772V223.436L210.356 233.16H220.3V238H203.624ZM226.003 209.752C226.883 209.752 227.601 210.045 228.159 210.632C228.716 211.189 228.995 211.893 228.995 212.744C228.995 213.624 228.716 214.357 228.159 214.944C227.601 215.501 226.883 215.78 226.003 215.78C225.093 215.78 224.331 215.501 223.715 214.944C223.128 214.357 222.835 213.624 222.835 212.744C222.835 211.893 223.128 211.189 223.715 210.632C224.331 210.045 225.093 209.752 226.003 209.752ZM228.731 218.508V238H223.099V218.772L228.731 218.508ZM250.76 238H245.128V226.428C245.128 225.284 244.849 224.463 244.292 223.964C243.734 223.465 242.972 223.216 242.004 223.216C241.358 223.216 240.698 223.333 240.024 223.568C239.349 223.773 238.704 224.067 238.088 224.448V238H232.456V218.772L238.088 218.508V220.312C239.026 219.608 239.98 219.095 240.948 218.772C241.945 218.42 242.986 218.244 244.072 218.244C246.096 218.244 247.709 218.816 248.912 219.96C250.144 221.075 250.76 222.835 250.76 225.24V238ZM272.528 217.98L272.484 222.336H269.58C269.874 222.717 270.094 223.157 270.24 223.656C270.416 224.125 270.504 224.624 270.504 225.152C270.504 227.176 269.8 228.804 268.392 230.036C266.984 231.239 265.063 231.899 262.628 232.016L260.604 233.996C260.956 233.937 261.367 233.893 261.836 233.864C262.306 233.805 262.775 233.776 263.244 233.776C263.714 233.747 264.08 233.732 264.344 233.732C267.072 233.732 269.155 234.26 270.592 235.316C272.059 236.343 272.792 237.839 272.792 239.804C272.792 241.74 271.986 243.339 270.372 244.6C268.788 245.891 266.222 246.536 262.672 246.536C260.619 246.536 258.698 246.345 256.908 245.964C255.148 245.583 253.726 245.069 252.64 244.424L253.08 239.584C253.696 240.024 254.532 240.42 255.588 240.772C256.644 241.124 257.818 241.403 259.108 241.608C260.428 241.843 261.719 241.96 262.98 241.96C264.242 241.96 265.195 241.872 265.84 241.696C266.486 241.549 266.94 241.315 267.204 240.992C267.468 240.699 267.6 240.332 267.6 239.892C267.6 239.217 267.263 238.733 266.588 238.44C265.943 238.176 264.726 238.044 262.936 238.044C261.851 238.044 260.692 238.088 259.46 238.176C258.228 238.264 257.172 238.411 256.292 238.616V234.7L259.416 231.752C257.539 231.4 256.087 230.623 255.06 229.42C254.034 228.217 253.52 226.795 253.52 225.152C253.52 223.744 253.858 222.527 254.532 221.5C255.236 220.473 256.219 219.681 257.48 219.124C258.771 218.537 260.282 218.244 262.012 218.244C263.215 218.244 264.33 218.405 265.356 218.728L272.528 217.98ZM265.356 225.152C265.356 224.243 265.048 223.495 264.432 222.908C263.846 222.321 263.039 222.028 262.012 222.028C260.956 222.028 260.12 222.321 259.504 222.908C258.918 223.495 258.624 224.243 258.624 225.152C258.624 226.032 258.918 226.765 259.504 227.352C260.12 227.939 260.956 228.232 262.012 228.232C263.039 228.232 263.846 227.953 264.432 227.396C265.048 226.809 265.356 226.061 265.356 225.152ZM307.283 238H301.035L298.835 231.62H289.639L287.395 238H281.455L290.959 211.864H297.779L307.283 238ZM297.339 227L295.227 221.06C295.021 220.473 294.845 219.931 294.699 219.432C294.581 218.904 294.464 218.376 294.347 217.848H294.127C294.009 218.376 293.877 218.904 293.731 219.432C293.613 219.931 293.452 220.473 293.247 221.06L291.091 227H297.339ZM329.571 220.84C329.571 222.776 329.131 224.419 328.251 225.768C327.4 227.117 326.153 228.129 324.511 228.804C322.868 229.479 320.888 229.816 318.571 229.816H315.491V238H309.639V211.864H318.615C320.932 211.864 322.897 212.216 324.511 212.92C326.153 213.624 327.4 214.636 328.251 215.956C329.131 217.276 329.571 218.904 329.571 220.84ZM323.719 220.84C323.719 219.872 323.499 219.08 323.059 218.464C322.648 217.848 322.047 217.393 321.255 217.1C320.492 216.807 319.568 216.66 318.483 216.66H315.491V225.02H318.483C319.568 225.02 320.492 224.873 321.255 224.58C322.047 224.287 322.648 223.832 323.059 223.216C323.499 222.6 323.719 221.808 323.719 220.84ZM338.597 211.864V238H332.745V211.864H338.597ZM72.164 255.64L66.444 275H60.46L58.172 268.18C57.7613 266.772 57.424 265.643 57.16 264.792C56.896 263.912 56.676 263.105 56.5 262.372H56.28C56.1333 263.105 55.9133 263.912 55.62 264.792C55.356 265.643 55.0187 266.772 54.608 268.18L52.32 275H46.336L40.616 255.772L46.292 255.508L48.888 264.748C49.0347 265.364 49.1813 266.097 49.328 266.948C49.504 267.769 49.636 268.532 49.724 269.236H49.944C50.032 268.532 50.1787 267.769 50.384 266.948C50.5893 266.097 50.78 265.364 50.956 264.748L53.508 257.092H59.492L62.044 264.748C62.22 265.364 62.4107 266.097 62.616 266.948C62.8213 267.769 62.968 268.532 63.056 269.236H63.276C63.364 268.532 63.4813 267.769 63.628 266.948C63.804 266.097 63.9653 265.364 64.112 264.748L66.62 255.64H72.164ZM86.6902 255.464L86.4702 260.876C86.2942 260.788 85.9862 260.7 85.5462 260.612C85.1355 260.524 84.7395 260.48 84.3582 260.48C83.5662 260.48 82.7889 260.627 82.0262 260.92C81.2929 261.184 80.6182 261.551 80.0022 262.02V275H74.3702V255.772L80.0022 255.508V257.796C80.8529 256.916 81.7182 256.271 82.5982 255.86C83.5075 255.449 84.4462 255.244 85.4142 255.244C85.6195 255.244 85.8395 255.259 86.0742 255.288C86.3382 255.317 86.5435 255.376 86.6902 255.464ZM105.472 275H100.148V273.504C99.4443 274.061 98.5937 274.516 97.5963 274.868C96.599 275.22 95.499 275.396 94.2963 275.396C92.155 275.396 90.5123 274.883 89.3683 273.856C88.2537 272.829 87.6963 271.407 87.6963 269.588C87.6963 267.623 88.3857 266.141 89.7643 265.144C91.143 264.117 93.0057 263.604 95.3523 263.604C96.203 263.604 97.0537 263.677 97.9043 263.824C98.755 263.971 99.4443 264.161 99.9723 264.396V263.34C99.9723 262.196 99.6057 261.389 98.8723 260.92C98.1683 260.421 97.0537 260.172 95.5283 260.172C94.443 260.172 93.3283 260.304 92.1843 260.568C91.0697 260.832 90.175 261.169 89.5003 261.58L89.2803 256.652C90.1897 256.212 91.2603 255.875 92.4923 255.64C93.7537 255.376 95.0443 255.244 96.3643 255.244C99.2977 255.244 101.542 255.875 103.096 257.136C104.68 258.368 105.472 260.319 105.472 262.988V275ZM99.9723 270.512V267.74C99.5617 267.535 99.0483 267.373 98.4323 267.256C97.8457 267.139 97.2737 267.08 96.7163 267.08C95.6017 267.08 94.751 267.285 94.1643 267.696C93.5777 268.077 93.2843 268.679 93.2843 269.5C93.2843 270.263 93.5337 270.82 94.0323 271.172C94.531 271.495 95.2643 271.656 96.2323 271.656C96.907 271.656 97.5963 271.553 98.3003 271.348C99.0043 271.113 99.5617 270.835 99.9723 270.512ZM128.514 265.1C128.514 267.065 128.089 268.825 127.238 270.38C126.417 271.935 125.273 273.167 123.806 274.076C122.369 274.956 120.697 275.396 118.79 275.396C117.148 275.396 115.813 275.132 114.786 274.604V283.14H109.154V255.772L114.786 255.508V256.916C115.461 256.359 116.209 255.948 117.03 255.684C117.852 255.391 118.79 255.244 119.846 255.244C121.46 255.244 122.912 255.64 124.202 256.432C125.522 257.224 126.564 258.353 127.326 259.82C128.118 261.287 128.514 263.047 128.514 265.1ZM122.706 265.276C122.706 264.22 122.53 263.311 122.178 262.548C121.826 261.756 121.298 261.155 120.594 260.744C119.92 260.304 119.069 260.084 118.042 260.084C116.781 260.084 115.696 260.421 114.786 261.096V270.028C115.168 270.175 115.608 270.307 116.106 270.424C116.634 270.512 117.177 270.556 117.734 270.556C118.761 270.556 119.641 270.351 120.374 269.94C121.108 269.5 121.68 268.884 122.09 268.092C122.501 267.271 122.706 266.332 122.706 265.276ZM150.418 265.1C150.418 267.065 149.993 268.825 149.142 270.38C148.321 271.935 147.177 273.167 145.71 274.076C144.273 274.956 142.601 275.396 140.694 275.396C139.051 275.396 137.717 275.132 136.69 274.604V283.14H131.058V255.772L136.69 255.508V256.916C137.365 256.359 138.113 255.948 138.934 255.684C139.755 255.391 140.694 255.244 141.75 255.244C143.363 255.244 144.815 255.64 146.106 256.432C147.426 257.224 148.467 258.353 149.23 259.82C150.022 261.287 150.418 263.047 150.418 265.1ZM144.61 265.276C144.61 264.22 144.434 263.311 144.082 262.548C143.73 261.756 143.202 261.155 142.498 260.744C141.823 260.304 140.973 260.084 139.946 260.084C138.685 260.084 137.599 260.421 136.69 261.096V270.028C137.071 270.175 137.511 270.307 138.01 270.424C138.538 270.512 139.081 270.556 139.638 270.556C140.665 270.556 141.545 270.351 142.278 269.94C143.011 269.5 143.583 268.884 143.994 268.092C144.405 267.271 144.61 266.332 144.61 265.276ZM170.122 266.684H157.714C157.89 267.476 158.242 268.165 158.77 268.752C159.327 269.309 160.031 269.735 160.882 270.028C161.762 270.321 162.788 270.468 163.962 270.468C164.959 270.468 166.03 270.336 167.174 270.072C168.318 269.779 169.256 269.412 169.99 268.972L170.21 273.768C169.447 274.296 168.42 274.707 167.13 275C165.868 275.264 164.68 275.396 163.566 275.396C161.072 275.396 158.931 274.985 157.142 274.164C155.382 273.313 154.047 272.125 153.138 270.6C152.258 269.075 151.818 267.285 151.818 265.232C151.818 263.208 152.228 261.463 153.05 259.996C153.9 258.5 155.059 257.341 156.526 256.52C158.022 255.669 159.694 255.244 161.542 255.244C163.243 255.244 164.754 255.581 166.074 256.256C167.423 256.931 168.464 257.913 169.198 259.204C169.96 260.465 170.342 261.991 170.342 263.78C170.342 264.161 170.312 264.631 170.254 265.188C170.224 265.716 170.18 266.215 170.122 266.684ZM161.586 259.292C160.442 259.292 159.503 259.673 158.77 260.436C158.066 261.199 157.64 262.211 157.494 263.472H165.106C165.106 263.413 165.106 263.325 165.106 263.208C165.106 263.061 165.106 262.959 165.106 262.9C165.106 261.815 164.783 260.949 164.138 260.304C163.522 259.629 162.671 259.292 161.586 259.292ZM185.51 255.464L185.29 260.876C185.114 260.788 184.806 260.7 184.366 260.612C183.955 260.524 183.559 260.48 183.178 260.48C182.386 260.48 181.608 260.627 180.846 260.92C180.112 261.184 179.438 261.551 178.822 262.02V275H173.19V255.772L178.822 255.508V257.796C179.672 256.916 180.538 256.271 181.418 255.86C182.327 255.449 183.266 255.244 184.234 255.244C184.439 255.244 184.659 255.259 184.894 255.288C185.158 255.317 185.363 255.376 185.51 255.464ZM207.952 247.412L207.732 252.252C207.527 252.164 207.248 252.105 206.896 252.076C206.574 252.047 206.266 252.032 205.972 252.032C204.916 252.032 204.11 252.267 203.552 252.736C202.995 253.205 202.716 253.983 202.716 255.068V255.64H207.512L207.116 260.48H202.716V275H197.084V260.48H194.444V255.64H197.084V254.98C197.084 252.399 197.832 250.448 199.328 249.128C200.824 247.779 202.834 247.104 205.356 247.104C205.767 247.104 206.222 247.133 206.72 247.192C207.219 247.251 207.63 247.324 207.952 247.412ZM229.439 265.32C229.439 267.256 228.985 268.987 228.075 270.512C227.195 272.037 225.963 273.24 224.379 274.12C222.795 274.971 220.991 275.396 218.967 275.396C216.943 275.396 215.139 274.971 213.555 274.12C211.971 273.24 210.725 272.037 209.815 270.512C208.935 268.987 208.495 267.256 208.495 265.32C208.495 263.355 208.935 261.624 209.815 260.128C210.725 258.603 211.971 257.415 213.555 256.564C215.139 255.684 216.943 255.244 218.967 255.244C220.991 255.244 222.795 255.684 224.379 256.564C225.963 257.415 227.195 258.603 228.075 260.128C228.985 261.624 229.439 263.355 229.439 265.32ZM223.631 265.32C223.631 264.293 223.426 263.399 223.015 262.636C222.605 261.844 222.047 261.243 221.343 260.832C220.639 260.392 219.847 260.172 218.967 260.172C218.087 260.172 217.295 260.392 216.591 260.832C215.887 261.243 215.33 261.844 214.919 262.636C214.509 263.399 214.303 264.293 214.303 265.32C214.303 266.347 214.509 267.256 214.919 268.048C215.33 268.811 215.887 269.412 216.591 269.852C217.325 270.263 218.117 270.468 218.967 270.468C219.877 270.468 220.683 270.263 221.387 269.852C222.091 269.412 222.634 268.811 223.015 268.048C223.426 267.256 223.631 266.347 223.631 265.32ZM244.293 255.464L244.073 260.876C243.897 260.788 243.589 260.7 243.149 260.612C242.738 260.524 242.342 260.48 241.961 260.48C241.169 260.48 240.391 260.627 239.629 260.92C238.895 261.184 238.221 261.551 237.605 262.02V275H231.973V255.772L237.605 255.508V257.796C238.455 256.916 239.321 256.271 240.201 255.86C241.11 255.449 242.049 255.244 243.017 255.244C243.222 255.244 243.442 255.259 243.677 255.288C243.941 255.317 244.146 255.376 244.293 255.464Z" fill="white"/>
<path d="M292.519 248.864L284.995 275H278.351L273.907 260.744C273.731 260.157 273.57 259.585 273.423 259.028C273.306 258.471 273.218 257.943 273.159 257.444H272.939C272.881 257.943 272.793 258.471 272.675 259.028C272.558 259.585 272.411 260.157 272.235 260.744L267.747 275H261.147L253.579 248.864H259.739L264.007 265.188C264.154 265.775 264.286 266.317 264.403 266.816C264.521 267.315 264.623 267.828 264.711 268.356H264.931C264.99 267.828 265.078 267.315 265.195 266.816C265.313 266.317 265.459 265.775 265.635 265.188L269.903 250.932H276.503L280.771 265.188C280.947 265.775 281.094 266.317 281.211 266.816C281.329 267.315 281.431 267.828 281.519 268.356H281.695C281.783 267.828 281.886 267.329 282.003 266.86C282.121 266.361 282.253 265.804 282.399 265.188L286.667 248.864H292.519ZM310.289 266.684H297.881C298.057 267.476 298.409 268.165 298.937 268.752C299.495 269.309 300.199 269.735 301.049 270.028C301.929 270.321 302.956 270.468 304.129 270.468C305.127 270.468 306.197 270.336 307.341 270.072C308.485 269.779 309.424 269.412 310.157 268.972L310.377 273.768C309.615 274.296 308.588 274.707 307.297 275C306.036 275.264 304.848 275.396 303.733 275.396C301.24 275.396 299.099 274.985 297.309 274.164C295.549 273.313 294.215 272.125 293.305 270.6C292.425 269.075 291.985 267.285 291.985 265.232C291.985 263.208 292.396 261.463 293.217 259.996C294.068 258.5 295.227 257.341 296.693 256.52C298.189 255.669 299.861 255.244 301.709 255.244C303.411 255.244 304.921 255.581 306.241 256.256C307.591 256.931 308.632 257.913 309.365 259.204C310.128 260.465 310.509 261.991 310.509 263.78C310.509 264.161 310.48 264.631 310.421 265.188C310.392 265.716 310.348 266.215 310.289 266.684ZM301.753 259.292C300.609 259.292 299.671 259.673 298.937 260.436C298.233 261.199 297.808 262.211 297.661 263.472H305.273C305.273 263.413 305.273 263.325 305.273 263.208C305.273 263.061 305.273 262.959 305.273 262.9C305.273 261.815 304.951 260.949 304.305 260.304C303.689 259.629 302.839 259.292 301.753 259.292ZM332.717 265.012C332.717 267.065 332.277 268.884 331.397 270.468C330.517 272.023 329.256 273.24 327.613 274.12C325.971 274.971 324.005 275.396 321.717 275.396C320.133 275.396 318.623 275.235 317.185 274.912C315.748 274.56 314.472 274.12 313.357 273.592V247.368L318.989 247.104V256.828C319.781 256.271 320.573 255.875 321.365 255.64C322.187 255.376 323.081 255.244 324.049 255.244C325.692 255.244 327.159 255.64 328.449 256.432C329.769 257.224 330.811 258.353 331.573 259.82C332.336 261.257 332.717 262.988 332.717 265.012ZM326.909 265.276C326.909 264.22 326.733 263.311 326.381 262.548C326.029 261.756 325.501 261.155 324.797 260.744C324.123 260.304 323.272 260.084 322.245 260.084C320.984 260.084 319.899 260.421 318.989 261.096V270.028C319.371 270.175 319.811 270.307 320.309 270.424C320.837 270.512 321.38 270.556 321.937 270.556C322.964 270.556 323.844 270.351 324.577 269.94C325.311 269.5 325.883 268.884 326.293 268.092C326.704 267.271 326.909 266.332 326.909 265.276ZM355.545 257.664C355.545 259.395 355.061 260.891 354.093 262.152C353.154 263.384 351.966 264.249 350.529 264.748L357.393 275H350.617L344.809 266.2H341.509V275H335.657V248.864H344.721C347.009 248.864 348.96 249.216 350.573 249.92C352.186 250.595 353.418 251.592 354.269 252.912C355.12 254.203 355.545 255.787 355.545 257.664ZM349.649 257.664C349.649 256.755 349.429 256.007 348.989 255.42C348.578 254.804 347.992 254.364 347.229 254.1C346.496 253.807 345.601 253.66 344.545 253.66H341.509V261.624H344.545C345.601 261.624 346.496 261.492 347.229 261.228C347.992 260.935 348.578 260.495 348.989 259.908C349.429 259.321 349.649 258.573 349.649 257.664ZM375.872 266.684H363.464C363.64 267.476 363.992 268.165 364.52 268.752C365.077 269.309 365.781 269.735 366.632 270.028C367.512 270.321 368.538 270.468 369.712 270.468C370.709 270.468 371.78 270.336 372.924 270.072C374.068 269.779 375.006 269.412 375.74 268.972L375.96 273.768C375.197 274.296 374.17 274.707 372.88 275C371.618 275.264 370.43 275.396 369.316 275.396C366.822 275.396 364.681 274.985 362.892 274.164C361.132 273.313 359.797 272.125 358.888 270.6C358.008 269.075 357.568 267.285 357.568 265.232C357.568 263.208 357.978 261.463 358.8 259.996C359.65 258.5 360.809 257.341 362.276 256.52C363.772 255.669 365.444 255.244 367.292 255.244C368.993 255.244 370.504 255.581 371.824 256.256C373.173 256.931 374.214 257.913 374.948 259.204C375.71 260.465 376.092 261.991 376.092 263.78C376.092 264.161 376.062 264.631 376.004 265.188C375.974 265.716 375.93 266.215 375.872 266.684ZM367.336 259.292C366.192 259.292 365.253 259.673 364.52 260.436C363.816 261.199 363.39 262.211 363.244 263.472H370.856C370.856 263.413 370.856 263.325 370.856 263.208C370.856 263.061 370.856 262.959 370.856 262.9C370.856 261.815 370.533 260.949 369.888 260.304C369.272 259.629 368.421 259.292 367.336 259.292ZM392.316 256.212L391.48 260.788C390.864 260.495 390.101 260.26 389.192 260.084C388.312 259.879 387.417 259.776 386.508 259.776C385.686 259.776 385.07 259.908 384.66 260.172C384.278 260.436 384.088 260.788 384.088 261.228C384.088 261.58 384.308 261.888 384.748 262.152C385.188 262.387 385.745 262.607 386.42 262.812C387.124 263.017 387.857 263.267 388.62 263.56C389.412 263.853 390.145 264.22 390.82 264.66C391.524 265.1 392.081 265.687 392.492 266.42C392.932 267.124 393.152 268.019 393.152 269.104C393.152 270.219 392.873 271.26 392.316 272.228C391.788 273.167 390.908 273.929 389.676 274.516C388.473 275.103 386.904 275.396 384.968 275.396C383.648 275.396 382.357 275.249 381.096 274.956C379.864 274.663 378.866 274.281 378.104 273.812L378.456 269.06C379.189 269.529 380.142 269.955 381.316 270.336C382.518 270.688 383.706 270.864 384.88 270.864C386.552 270.864 387.388 270.365 387.388 269.368C387.388 268.987 387.168 268.679 386.728 268.444C386.288 268.209 385.73 267.989 385.056 267.784C384.381 267.549 383.648 267.285 382.856 266.992C382.064 266.699 381.33 266.332 380.656 265.892C379.981 265.423 379.424 264.836 378.984 264.132C378.544 263.428 378.324 262.533 378.324 261.448C378.324 260.275 378.646 259.233 379.292 258.324C379.966 257.385 380.92 256.637 382.152 256.08C383.384 255.523 384.85 255.244 386.552 255.244C387.696 255.244 388.781 255.332 389.808 255.508C390.834 255.655 391.67 255.889 392.316 256.212ZM408.003 255.64L407.607 260.48H402.459V267.828C402.459 268.796 402.694 269.485 403.163 269.896C403.632 270.277 404.322 270.468 405.231 270.468C405.73 270.468 406.199 270.395 406.639 270.248C407.108 270.072 407.504 269.867 407.827 269.632L408.047 274.384C407.02 275.059 405.627 275.396 403.867 275.396C401.432 275.396 399.658 274.795 398.543 273.592C397.428 272.389 396.871 270.673 396.871 268.444V260.48H394.231V255.64H396.871V251.592L402.459 250.404V255.64H408.003ZM430.43 265.32C430.43 267.256 429.975 268.987 429.066 270.512C428.186 272.037 426.954 273.24 425.37 274.12C423.786 274.971 421.982 275.396 419.958 275.396C417.934 275.396 416.13 274.971 414.546 274.12C412.962 273.24 411.715 272.037 410.806 270.512C409.926 268.987 409.486 267.256 409.486 265.32C409.486 263.355 409.926 261.624 410.806 260.128C411.715 258.603 412.962 257.415 414.546 256.564C416.13 255.684 417.934 255.244 419.958 255.244C421.982 255.244 423.786 255.684 425.37 256.564C426.954 257.415 428.186 258.603 429.066 260.128C429.975 261.624 430.43 263.355 430.43 265.32ZM424.622 265.32C424.622 264.293 424.417 263.399 424.006 262.636C423.595 261.844 423.038 261.243 422.334 260.832C421.63 260.392 420.838 260.172 419.958 260.172C419.078 260.172 418.286 260.392 417.582 260.832C416.878 261.243 416.321 261.844 415.91 262.636C415.499 263.399 415.294 264.293 415.294 265.32C415.294 266.347 415.499 267.256 415.91 268.048C416.321 268.811 416.878 269.412 417.582 269.852C418.315 270.263 419.107 270.468 419.958 270.468C420.867 270.468 421.674 270.263 422.378 269.852C423.082 269.412 423.625 268.811 424.006 268.048C424.417 267.256 424.622 266.347 424.622 265.32Z" fill="#FFD0A0"/>
<path fill-rule="evenodd" clip-rule="evenodd" d="M88.672 197.476L94.486 177.28H89.964L86.666 189.894C86.5527 190.37 86.4507 190.801 86.36 191.186C86.2693 191.549 86.19 191.934 86.122 192.342H85.986C85.918 191.934 85.8387 191.538 85.748 191.152C85.6573 190.767 85.544 190.348 85.408 189.894L82.11 178.878H77.01L73.712 189.894C73.576 190.348 73.4627 190.767 73.372 191.152C73.2813 191.538 73.2133 191.934 73.168 192.342H72.998C72.93 191.934 72.8507 191.538 72.76 191.152C72.6693 190.767 72.5673 190.348 72.454 189.894L69.156 177.28H64.396L70.244 197.476H75.344L78.812 186.46C78.948 186.007 79.0613 185.565 79.152 185.134C79.2427 184.704 79.3107 184.296 79.356 183.91H79.526C79.5713 184.296 79.6393 184.704 79.73 185.134C79.8433 185.565 79.968 186.007 80.104 186.46L83.538 197.476H88.672ZM97.9492 191.05H107.537C107.583 190.688 107.617 190.302 107.639 189.894C107.685 189.464 107.707 189.101 107.707 188.806C107.707 187.424 107.413 186.245 106.823 185.27C106.257 184.273 105.452 183.514 104.409 182.992C103.389 182.471 102.222 182.21 100.907 182.21C99.4792 182.21 98.1872 182.539 97.0312 183.196C95.8979 183.831 95.0026 184.726 94.3452 185.882C93.7106 187.016 93.3932 188.364 93.3932 189.928C93.3932 191.515 93.7332 192.898 94.4132 194.076C95.1159 195.255 96.1472 196.173 97.5072 196.83C98.8899 197.465 100.545 197.782 102.471 197.782C103.333 197.782 104.251 197.68 105.225 197.476C106.223 197.25 107.016 196.932 107.605 196.524L107.435 192.818C106.869 193.158 106.143 193.442 105.259 193.668C104.375 193.872 103.548 193.974 102.777 193.974C101.871 193.974 101.077 193.861 100.397 193.634C99.7399 193.408 99.1959 193.079 98.7652 192.648C98.3572 192.195 98.0852 191.662 97.9492 191.05ZM98.7652 186.222C99.3319 185.633 100.057 185.338 100.941 185.338C101.78 185.338 102.437 185.599 102.913 186.12C103.412 186.619 103.661 187.288 103.661 188.126V188.364V188.568H97.7792C97.8926 187.594 98.2212 186.812 98.7652 186.222ZM123.168 193.974C123.848 192.75 124.188 191.345 124.188 189.758C124.188 188.194 123.893 186.857 123.304 185.746C122.715 184.613 121.91 183.74 120.89 183.128C119.893 182.516 118.759 182.21 117.49 182.21C116.742 182.21 116.051 182.312 115.416 182.516C114.804 182.698 114.192 183.004 113.58 183.434V175.92L109.228 176.124V196.388C110.089 196.796 111.075 197.136 112.186 197.408C113.297 197.658 114.464 197.782 115.688 197.782C117.456 197.782 118.975 197.454 120.244 196.796C121.513 196.116 122.488 195.176 123.168 193.974ZM119.292 187.854C119.564 188.444 119.7 189.146 119.7 189.962C119.7 190.778 119.541 191.504 119.224 192.138C118.907 192.75 118.465 193.226 117.898 193.566C117.331 193.884 116.651 194.042 115.858 194.042C115.427 194.042 115.008 194.008 114.6 193.94C114.215 193.85 113.875 193.748 113.58 193.634V186.732C114.283 186.211 115.121 185.95 116.096 185.95C116.889 185.95 117.547 186.12 118.068 186.46C118.612 186.778 119.02 187.242 119.292 187.854ZM140.026 187.548C140.774 186.574 141.148 185.418 141.148 184.08C141.148 182.63 140.819 181.406 140.162 180.408C139.504 179.388 138.552 178.618 137.306 178.096C136.059 177.552 134.552 177.28 132.784 177.28H125.78V197.476H130.302V190.676H132.852L137.34 197.476H142.576L137.272 189.554C138.382 189.169 139.3 188.5 140.026 187.548ZM136.082 182.346C136.422 182.8 136.592 183.378 136.592 184.08C136.592 184.783 136.422 185.361 136.082 185.814C135.764 186.268 135.311 186.608 134.722 186.834C134.155 187.038 133.464 187.14 132.648 187.14H130.302V180.986H132.648C133.464 180.986 134.155 181.1 134.722 181.326C135.311 181.53 135.764 181.87 136.082 182.346ZM146.586 191.05H156.174C156.22 190.688 156.254 190.302 156.276 189.894C156.322 189.464 156.344 189.101 156.344 188.806C156.344 187.424 156.05 186.245 155.46 185.27C154.894 184.273 154.089 183.514 153.046 182.992C152.026 182.471 150.859 182.21 149.544 182.21C148.116 182.21 146.824 182.539 145.668 183.196C144.535 183.831 143.64 184.726 142.982 185.882C142.348 187.016 142.03 188.364 142.03 189.928C142.03 191.515 142.37 192.898 143.05 194.076C143.753 195.255 144.784 196.173 146.144 196.83C147.527 197.465 149.182 197.782 151.108 197.782C151.97 197.782 152.888 197.68 153.862 197.476C154.86 197.25 155.653 196.932 156.242 196.524L156.072 192.818C155.506 193.158 154.78 193.442 153.896 193.668C153.012 193.872 152.185 193.974 151.414 193.974C150.508 193.974 149.714 193.861 149.034 193.634C148.377 193.408 147.833 193.079 147.402 192.648C146.994 192.195 146.722 191.662 146.586 191.05ZM147.402 186.222C147.969 185.633 148.694 185.338 149.578 185.338C150.417 185.338 151.074 185.599 151.55 186.12C152.049 186.619 152.298 187.288 152.298 188.126V188.364V188.568H146.416C146.53 187.594 146.858 186.812 147.402 186.222ZM167.555 186.494L168.201 182.958C167.703 182.709 167.057 182.528 166.263 182.414C165.47 182.278 164.631 182.21 163.747 182.21C162.433 182.21 161.299 182.426 160.347 182.856C159.395 183.287 158.659 183.865 158.137 184.59C157.639 185.293 157.389 186.098 157.389 187.004C157.389 187.843 157.559 188.534 157.899 189.078C158.239 189.622 158.67 190.076 159.191 190.438C159.713 190.778 160.279 191.062 160.891 191.288C161.503 191.515 162.07 191.719 162.591 191.9C163.113 192.059 163.543 192.229 163.883 192.41C164.223 192.592 164.393 192.83 164.393 193.124C164.393 193.895 163.747 194.28 162.455 194.28C161.549 194.28 160.631 194.144 159.701 193.872C158.795 193.578 158.058 193.249 157.491 192.886L157.219 196.558C157.809 196.921 158.579 197.216 159.531 197.442C160.506 197.669 161.503 197.782 162.523 197.782C164.019 197.782 165.232 197.556 166.161 197.102C167.113 196.649 167.793 196.06 168.201 195.334C168.632 194.586 168.847 193.782 168.847 192.92C168.847 192.082 168.677 191.39 168.337 190.846C168.02 190.28 167.589 189.826 167.045 189.486C166.524 189.146 165.957 188.863 165.345 188.636C164.756 188.41 164.189 188.217 163.645 188.058C163.124 187.9 162.693 187.73 162.353 187.548C162.013 187.344 161.843 187.106 161.843 186.834C161.843 186.494 161.991 186.222 162.285 186.018C162.603 185.814 163.079 185.712 163.713 185.712C164.416 185.712 165.107 185.792 165.787 185.95C166.49 186.086 167.079 186.268 167.555 186.494ZM179.337 186.256L179.643 182.516H175.359V178.47L171.041 179.388V182.516H169.001V186.256H171.041V192.41C171.041 194.133 171.472 195.459 172.333 196.388C173.195 197.318 174.566 197.782 176.447 197.782C177.807 197.782 178.884 197.522 179.677 197L179.507 193.328C179.258 193.51 178.952 193.668 178.589 193.804C178.249 193.918 177.887 193.974 177.501 193.974C176.799 193.974 176.266 193.827 175.903 193.532C175.541 193.215 175.359 192.682 175.359 191.934V186.256H179.337ZM189.731 197.476H193.845V188.194C193.845 186.132 193.233 184.624 192.009 183.672C190.808 182.698 189.074 182.21 186.807 182.21C185.787 182.21 184.79 182.312 183.815 182.516C182.863 182.698 182.036 182.958 181.333 183.298L181.503 187.106C182.024 186.789 182.716 186.528 183.577 186.324C184.461 186.12 185.322 186.018 186.161 186.018C187.34 186.018 188.201 186.211 188.745 186.596C189.312 186.959 189.595 187.582 189.595 188.466V189.282C189.187 189.101 188.654 188.954 187.997 188.84C187.34 188.727 186.682 188.67 186.025 188.67C184.212 188.67 182.772 189.067 181.707 189.86C180.642 190.631 180.109 191.776 180.109 193.294C180.109 194.7 180.54 195.799 181.401 196.592C182.285 197.386 183.554 197.782 185.209 197.782C186.138 197.782 186.988 197.646 187.759 197.374C188.53 197.102 189.187 196.751 189.731 196.32V197.476ZM189.595 191.866V194.008C189.278 194.258 188.847 194.473 188.303 194.654C187.759 194.813 187.226 194.892 186.705 194.892C185.957 194.892 185.39 194.768 185.005 194.518C184.62 194.246 184.427 193.816 184.427 193.226C184.427 192.592 184.654 192.127 185.107 191.832C185.56 191.515 186.218 191.356 187.079 191.356C187.51 191.356 187.952 191.402 188.405 191.492C188.881 191.583 189.278 191.708 189.595 191.866ZM214.381 197.476L218.801 182.516H214.517L212.579 189.554C212.466 190.03 212.341 190.597 212.205 191.254C212.092 191.889 212.001 192.478 211.933 193.022H211.763C211.695 192.478 211.582 191.889 211.423 191.254C211.265 190.597 211.117 190.03 210.981 189.554L209.009 183.638H204.385L202.413 189.554C202.277 190.03 202.13 190.597 201.971 191.254C201.813 191.889 201.699 192.478 201.631 193.022H201.461C201.393 192.478 201.291 191.889 201.155 191.254C201.042 190.597 200.929 190.03 200.815 189.554L198.809 182.414L194.423 182.618L198.843 197.476H203.467L205.235 192.206C205.553 191.118 205.813 190.246 206.017 189.588C206.244 188.908 206.414 188.285 206.527 187.718H206.697C206.833 188.285 207.003 188.908 207.207 189.588C207.411 190.246 207.672 191.118 207.989 192.206L209.757 197.476H214.381ZM40 184.295L53.1429 184.295V177.476H40V184.295ZM60 184.295H53.1429C45.8738 184.356 40 190.234 40 197.476H46.8571C46.8571 194 49.661 191.174 53.1429 191.114V197.476H60V184.295Z" fill="#FFD0A0"/>
<g style="mix-blend-mode:overlay">
<path fill-rule="evenodd" clip-rule="evenodd" d="M499.809 140L640 140V212.475L499.81 212.475L499.809 140L427 140V6.10352e-05L499.81 -0.858246V67.0099C536.95 66.3633 566.857 36.2253 566.857 -0.858246H640C640 76.3919 577.347 139.349 499.809 140Z" fill="#FFD0A0" fill-opacity="0.7"/>
<path fill-rule="evenodd" clip-rule="evenodd" d="M353.524 -0.272728L213.333 -0.267609V-73H353.524V-0.267609L427 0V140H353.524V72.4652C316.384 73.1118 286.5 102.916 286.5 140H214C214 62.7499 275.987 0.383403 353.524 -0.267609V-0.272728Z" fill="#FFD0A0" fill-opacity="0.5"/>
<path fill-rule="evenodd" clip-rule="evenodd" d="M73.1429 67.6061L214 67.6061V140H73.1429V67.6009L-1.52588e-05 67.6009L-1.52588e-05 -73H73.1429V-5.13184C110.283 -5.77849 140.19 -35.9165 140.19 -73H213.333C213.333 4.25013 150.68 66.9499 73.1429 67.6009V67.6061Z" fill="#FFD0A0"/>
</g>
</g>
<defs>
<radialGradient id="paint0_radial_375_6481" cx="0" cy="0" r="1" gradientUnits="userSpaceOnUse" gradientTransform="translate(7.28351e-07 392.5) rotate(44.6199) scale(426.395 545.838)">
<stop offset="0.100613" stop-color="#FFD0A0" stop-opacity="0"/>
<stop offset="0.515" stop-color="#B16F2B"/>
<stop offset="1" stop-color="#B16F2B" stop-opacity="0"/>
</radialGradient>
<radialGradient id="paint1_radial_375_6481" cx="0" cy="0" r="1" gradientUnits="userSpaceOnUse" gradientTransform="translate(876 -336) rotate(95.2439) scale(995.667 1336.96)">
<stop stop-color="#FFD0A0" stop-opacity="0"/>
<stop offset="0.485002" stop-color="#B16F2B"/>
<stop offset="1" stop-color="#FFD0A0" stop-opacity="0"/>
</radialGradient>
<clipPath id="clip0_375_6481">
<rect width="640" height="320" fill="white"/>
</clipPath>
</defs>
</svg>
